<svg width="18px" height="16px" viewBox="0 0 18 16" version="1.1" xmlns="http://www.w3.org/2000/svg" xmlns:xlink="http://www.w3.org/1999/xlink">
  <g id="Page-1" stroke="none" stroke-width="1" fill="none" fill-rule="evenodd">
    <g id="house" fill="#000000" fill-rule="nonzero">
      <path d="M17.9952804,7.98505407 C17.9952804,8.54760191 17.5264905,8.98826439 16.9951953,8.98826439 L15.9951103,8.98826439 L16.0169871,13.9949402 C16.0169871,14.0793223 16.0107366,14.1637045 16.0013608,14.2480867 L16.0013608,14.7512545 C16.0013608,15.4419382 15.4419382,16.0013608 14.7512545,16.0013608 L14.251212,16.0013608 C14.216834,16.0013608 14.1824561,16.0013608 14.1480782,15.9982355 C14.1043245,16.0013608 14.0605708,16.0013608 14.016817,16.0013608 L13.0011057,16.0013608 L12.2510419,16.0013608 C11.5603581,16.0013608 11.0009356,15.4419382 11.0009356,14.7512545 L11.0009356,14.0011907 L11.0009356,12.0010206 C11.0009356,11.4478486 10.5540225,11.0009356 10.0008505,11.0009356 L8.0006804,11.0009356 C7.44750836,11.0009356 7.00059535,11.4478486 7.00059535,12.0010206 L7.00059535,14.0011907 L7.00059535,14.7512545 C7.00059535,15.4419382 6.44117278,16.0013608 5.75048904,16.0013608 L5.00042525,16.0013608 L4.00346547,16.0013608 C3.95658648,16.0013608 3.90970749,15.9982355 3.86282851,15.9951103 C3.82532532,15.9982355 3.78782213,16.0013608 3.75031894,16.0013608 L3.25027641,16.0013608 C2.55959268,16.0013608 2.0001701,15.4419382 2.0001701,14.7512545 L2.0001701,11.2509568 C2.0001701,11.2228294 2.0001701,11.1915768 2.00329537,11.1634494 L2.00329537,8.98826439 L1.00008505,8.98826439 C0.437537209,8.98826439 0,8.55072718 0,7.98505407 C0,7.70378015 0.0937579734,7.45375889 0.312526578,7.23499028 L8.32570804,0.250021263 C8.54447665,0.0312526578 8.79449791,0 9.01326651,0 C9.23203512,0 9.48205638,0.0625053156 9.66957233,0.218768605 L17.6515011,7.23499028 C17.9015224,7.45375889 18.026533,7.70378015 17.9952804,7.98505407 Z" id="Path"></path>
    </g>
  </g>
</svg>
